<?xml version="1.0" encoding="UTF-8"?>
<svg width="10mm" height="10mm" enable-background="new 0 0 1000 1000" version="1.1" viewBox="0 0 993.47 993.47" xml:space="preserve" xmlns="http://www.w3.org/2000/svg" xmlns:cc="http://creativecommons.org/ns#" xmlns:dc="http://purl.org/dc/elements/1.1/" xmlns:rdf="http://www.w3.org/1999/02/22-rdf-syntax-ns#">
<metadata> Svg Vector Icons : http://www.onlinewebfonts.com/icon <rdf:RDF><cc:Work rdf:about=""><dc:format>image/svg+xml</dc:format><dc:type rdf:resource="http://purl.org/dc/dcmitype/StillImage"/><dc:title/></cc:Work></rdf:RDF></metadata>
<path d="m31.084 286.08c-20.675 1.3464-37.813 24.393-28.281 44.35 5.4108 19.702 30.352 21.748 44.584 32.806 148.72 78.549 297.53 157.06 447.73 232.71 24.964-6.348 46.873-23.385 70.661-33.809 134.62-70.905 270.81-138.95 403.96-212.59 17.106-6.7121 29.916-26.84 20.602-44.438-6.2077-14.287-22.515-23.495-37.361-16.121-72.009 29.425-139.28 69.259-208.81 103.99-82.492 42.955-164.97 85.935-247.46 128.9-149.9-76.868-297.97-157.42-449.56-230.93-5.1514-2.0534-10.356-5.1155-16.071-4.8633z"/><path d="m32.683 525.35c-25.317-0.0456-45.44 37.291-22.907 54.298 50.926 35.665 108.51 60.622 162.86 90.56 106.82 55.309 213.12 111.67 320.65 165.56 18.513-1.9292 33.982-16.325 51.289-22.879 141.41-73.454 283.79-145.16 423.42-221.96 16.975-6.7386 32.035-26.822 22.159-44.869-8.272-15.352-28.883-27.876-44.807-15.062-151 73.961-298.74 154.54-448.82 230.1-148.68-74.708-295.01-154.03-443.62-228.79-6.5331-2.5651-13.004-7.0058-20.221-6.9525z"/></svg>
