<?xml version="1.0" encoding="UTF-8"?>
<svg width="10mm" height="10mm" enable-background="new 0 0 266.893 266.895" version="1.1" viewBox="0 0 257.72 257.72" xml:space="preserve" xmlns="http://www.w3.org/2000/svg" xmlns:cc="http://creativecommons.org/ns#" xmlns:dc="http://purl.org/dc/elements/1.1/" xmlns:rdf="http://www.w3.org/1999/02/22-rdf-syntax-ns#"><metadata><rdf:RDF><cc:Work rdf:about=""><dc:format>image/svg+xml</dc:format><dc:type rdf:resource="http://purl.org/dc/dcmitype/StillImage"/><dc:title/></cc:Work></rdf:RDF></metadata>
<path d="m177.82 257.72v-99.803h33.499l5.016-38.895h-38.515v-24.832c0-11.261 3.127-18.935 19.275-18.935l20.596-9e-3v-34.788c-3.562-0.474-15.788-1.533-30.012-1.533-29.695 0-50.025 18.126-50.025 51.413v28.684h-33.585v38.895h33.585v99.803z" fill="#fff"/>
<path d="m194.33 39.691c-10.532 0.86462-21.996-1.989-31.091 4.7777-16.229 7.1305-25.19 24.916-24.957 42.144-0.74103 10.699-0.87818 21.428-1.29 32.143-10.769 0.26628-21.973-0.51472-32.483 0.37771 0.25261 12.89-0.50467 26.199 0.37771 38.829h32.419c0.2524 33.121-0.5034 66.66 0.37771 99.52 13.264-0.25971 26.956 0.51064 39.96-0.3777v-99.142c11.092-0.70264 22.709 1.3482 33.545-1.1486 1.7809-12.162 3.7026-24.983 4.6827-37.203-12.628-1.5635-25.509-0.5347-38.228-0.85481 1.044-12.405-2.2919-26.093 3.2492-37.726 6.3012-7.7869 18.077-4.8476 26.797-5.6236 8.9958 2.5251 11.198-2.4304 9.5354-10.556-0.20686-7.9686 0.41275-16.235-0.30702-24.019-7.3947-1.708-15.066-1.0132-22.587-1.1397z"/></svg>
