<?xml version="1.0" encoding="UTF-8"?>
<svg width="10mm" height="10mm" version="1.0" viewBox="0 0 1058.3 1058.3" xmlns="http://www.w3.org/2000/svg" xmlns:cc="http://creativecommons.org/ns#" xmlns:dc="http://purl.org/dc/elements/1.1/" xmlns:rdf="http://www.w3.org/1999/02/22-rdf-syntax-ns#">
<metadata>Created by potrace 1.15, written by Peter Selinger 2001-2017
<rdf:RDF>
<cc:Work rdf:about="">
<dc:format>image/svg+xml</dc:format>
<dc:type rdf:resource="http://purl.org/dc/dcmitype/StillImage"/>
<dc:title/>
</cc:Work>
</rdf:RDF>
</metadata>
<g transform="matrix(.1 0 0 -.1 -87.558 1178)">
<path d="m4969 10256c-646-572-1825-1616-2620-2320-794-703-1445-1282-1447-1286-3-8 537-620 548-620 4 0 407 354 896 788 489 433 1515 1341 2278 2017 764 677 1426 1263 1472 1302l82 73 2358-2090c1298-1149 2364-2089 2369-2089 6 0 131 138 279 306 196 223 267 309 260 319-5 7-1185 1054-2621 2327-2305 2040-2617 2313-2645 2314-30 1-146-100-1209-1041z"/>
<path d="m2470 9648v-992l33 30c31 30 1280 1156 1284 1158 0 1 5 180 9 399l7 397h-1333z"/>
<path d="m5744 9127c-236-210-1070-949-1852-1641l-1422-1259v-2371c0-2275 1-2373 19-2411 23-51 74-101 120-117 28-10 286-13 1216-13h1180l5 1065c5 985 6 1067 22 1097 23 42 80 88 127 102 28 8 315 11 1027 11 939 0 991-1 1030-19 57-26 110-92 123-153 7-33 11-392 11-1078v-1030h1163c1261 0 1218-2 1291 54 19 14 43 45 55 69l21 43 1 2375 1 2374-314 280c-289 258-3344 2963-3378 2991-13 10-83-48-446-369z"/>
</g>
</svg>
