<?xml version="1.0" encoding="UTF-8"?>
<svg width="10mm" height="10mm" version="1.1" viewBox="0 0 494.42 494.42" xmlns="http://www.w3.org/2000/svg" xmlns:cc="http://creativecommons.org/ns#" xmlns:dc="http://purl.org/dc/elements/1.1/" xmlns:rdf="http://www.w3.org/1999/02/22-rdf-syntax-ns#">
<metadata>
<rdf:RDF>
<cc:Work rdf:about="">
<dc:format>image/svg+xml</dc:format>
<dc:type rdf:resource="http://purl.org/dc/dcmitype/StillImage"/>
<dc:title/>
</cc:Work>
</rdf:RDF>
</metadata>
<path d="m39.807 279.57c3.5269 4.1868 7.1802 8.275 11.14 12.085 36.783 36.878 90.958 55.589 142.64 47.855 30.042-3.7526 58.612-16.035 82.628-34.339 3.5586-0.14442 6.007 5.5962 9.0958 7.3328 10.795 11.232 23.079 21.31 32.499 33.726 0.14991 3.3517-4.1812 5.7526-3.8836 9.5301-3.0136 9.8188 7.5353 15.733 12.571 22.356 37.746 38.775 76.249 77.02 114.51 115.15 16.732-16.843 33.794-33.553 50.308-50.487-40.28-39.743-79.414-80.658-120.57-119.5-5.1746-4.7892-12.265-10.985-19.699-6.643-3.042 0.5782-5.7698 5.4328-8.7125 1.8907-13.796-12.362-26.357-26.044-39.628-38.964h-51.713c-11.486 8.5739-24.272 15.358-37.916 19.75-19.699 7.2208-41.17 6.3089-61.754 5.4932-21.893-3.3918-42.878-12.193-60.706-25.243z"/>
<path transform="scale(13.082)" d="m13.412 0.046875c-1.8347-0.036595-3.6783 0.24536-5.3652 0.98633-4.316 1.7585-7.5183 5.9859-7.9375 10.643-0.39143 3.459 0.69518 7.0381 2.9336 9.6953h3.8848c-0.95553-0.69944-1.7965-1.5536-2.4434-2.5586-1.0951-1.6351-1.7875-3.5729-1.707-5.5586-0.069462-1.3053 0.091679-2.6171 0.60547-3.8262 1.4335-3.9837 5.4681-6.7705 9.7012-6.7109 4.0573-0.035239 7.9957 2.5584 9.5039 6.3379 0.60852 1.3662 0.85844 2.8634 0.75976 4.3555 0.0049 3.1328-1.6718 6.1035-4.1602 7.9609h3.9531c1.7881-2.3743 3.03-5.2865 2.9023-8.3027 0.12768-4.6045-2.5501-9.1195-6.5605-11.346-1.8445-1.0178-3.9546-1.6632-6.0703-1.6758z"/>
</svg>
