<?xml version="1.0" encoding="UTF-8"?>
<svg width="20mm" height="20mm" version="1.1" viewBox="0 0 297 297" xml:space="preserve" xmlns="http://www.w3.org/2000/svg" xmlns:cc="http://creativecommons.org/ns#" xmlns:dc="http://purl.org/dc/elements/1.1/" xmlns:rdf="http://www.w3.org/1999/02/22-rdf-syntax-ns#"><metadata><rdf:RDF><cc:Work rdf:about=""><dc:format>image/svg+xml</dc:format><dc:type rdf:resource="http://purl.org/dc/dcmitype/StillImage"/><dc:title/></cc:Work></rdf:RDF></metadata>
<g transform="translate(0 -3.0423)">
		<path d="m287.03 60.873-20.819-1e-3v-21.551c0-4.934-3.61-9.126-8.49-9.856-0.852-0.128-21.134-3.074-45.557 1.37-27.227 4.954-48.941 17.171-63.668 35.64-14.728-18.469-36.442-30.686-63.668-35.64-24.424-4.443-44.706-1.498-45.557-1.37-4.88 0.731-8.49 4.923-8.49 9.856v21.551h-20.819c-5.503 0-9.966 4.463-9.966 9.967v187.8c0 3.227 1.562 6.254 4.193 8.124s6.004 2.35 9.051 1.288c0.748-0.259 75.431-25.747 131.12-0.345 2.628 1.199 5.645 1.199 8.273 0 55.533-25.33 130.38 0.088 131.12 0.345 1.068 0.372 2.174 0.555 3.276 0.555 2.043 0 4.065-0.628 5.775-1.842 2.631-1.87 4.193-4.897 4.193-8.124v-187.8c-1e-3 -5.504-4.463-9.967-9.967-9.967zm-267.1 184.44v-164.5h10.852v132.73c0 2.896 1.267 5.646 3.458 7.539s5.105 2.742 7.969 2.319c0.55-0.08 43.846-6.024 75.478 15.679-38.965-6.663-77.963 1.044-97.757 6.241zm118.6-15.229c-13.932-12.588-32.079-21.1-53.702-25.034-10.406-1.894-20.06-2.446-27.78-2.446-2.292 0-4.414 0.049-6.333 0.126v-154.25h-1e-3c19.155-0.864 65.752 1.184 87.816 38.587zm19.932-143.02c21.985-37.243 68.655-39.384 87.816-38.563v154.23c-8.383-0.338-20.62-0.136-34.114 2.32-21.623 3.934-39.77 12.445-53.702 25.034zm20.811 152.01c31.636-21.716 74.955-15.766 75.495-15.686 2.871 0.431 5.783-0.413 7.981-2.305 2.198-1.894 3.462-4.65 3.462-7.552v-132.72h10.852v164.5c-19.8-5.199-58.814-12.909-97.79-6.235z"/>
</g>
</svg>
