<?xml version="1.0" encoding="UTF-8"?>
<svg width="20mm" height="20mm" enable-background="new -4.167 0 106.667 100" version="1.1" viewBox="-4.167 0 100 100" xml:space="preserve" xmlns="http://www.w3.org/2000/svg" xmlns:cc="http://creativecommons.org/ns#" xmlns:dc="http://purl.org/dc/elements/1.1/" xmlns:rdf="http://www.w3.org/1999/02/22-rdf-syntax-ns#"><metadata><rdf:RDF><cc:Work rdf:about=""><dc:format>image/svg+xml</dc:format><dc:type rdf:resource="http://purl.org/dc/dcmitype/StillImage"/><dc:title/></cc:Work></rdf:RDF></metadata>
<path d="m73.233 8.6834c6.074 0 10.998 4.923 10.998 10.997 0 6.074-4.923 10.998-10.998 10.998-6.069 0-10.993-4.923-10.993-10.998 0-6.074 4.924-10.997 10.993-10.997z"/>
<path d="m17.529 8.6834c6.074 0 10.997 4.923 10.997 10.997 0 6.074-4.923 10.998-10.997 10.998s-10.997-4.923-10.997-10.998c0-6.074 4.923-10.997 10.997-10.997z"/>
<path d="m47.125 20.126c8.096 0 14.658 6.563 14.658 14.66 0 8.1-6.563 14.663-14.658 14.663-8.101 0-14.663-6.563-14.663-14.663 0-8.097 6.562-14.66 14.663-14.66z"/>
<path d="m85.807 34.506h-20.962c3e-3 0.097 0.016 0.19 0.016 0.287 0 5.912-2.902 11.134-7.35 14.358h5.477c7.087 0 12.831 5.128 12.831 11.454v8.826h20.015v-24.899c0-5.539-4.489-10.026-10.027-10.026z"/>
<path d="m72.925 92.062v-28.812c0-6.324-5.129-11.457-11.455-11.457h-29.674c-6.326 0-11.454 5.133-11.454 11.457v28.813h52.583z"/>
<path d="m29.382 34.787c0-0.095 0.013-0.187 0.014-0.282h-23.537c-5.536 0-10.026 4.488-10.026 10.027v24.897h21.073v-8.863c0-6.325 5.745-11.454 12.832-11.454h6.952c-4.423-3.226-7.308-8.432-7.308-14.325z"/>
</svg>
