<?xml version="1.0" encoding="UTF-8"?>
<svg width="20mm" height="20mm" enable-background="new 0 0 1000 1000" version="1.1" viewBox="0 0 980 980" xml:space="preserve" xmlns="http://www.w3.org/2000/svg" xmlns:cc="http://creativecommons.org/ns#" xmlns:dc="http://purl.org/dc/elements/1.1/" xmlns:rdf="http://www.w3.org/1999/02/22-rdf-syntax-ns#">
<metadata> Svg Vector Icons : http://www.onlinewebfonts.com/icon <rdf:RDF><cc:Work rdf:about=""><dc:format>image/svg+xml</dc:format><dc:type rdf:resource="http://purl.org/dc/dcmitype/StillImage"/><dc:title/></cc:Work></rdf:RDF></metadata>
<g transform="translate(-10 -9.9003)"><path d="m756.7 150v-93.4c0-25.8-21-46.6-46.7-46.6-25.8 0-46.7 20.9-46.7 46.6v93.4c0 25.8 21 46.6 46.7 46.6 25.8 0.1 46.7-20.8 46.7-46.6z"/><path d="m301.7 196.7c19.3 0 35-15.6 35-35.1v-116.5c0-19.4-15.6-35.1-35-35.1h-23.3c-19.3 0-35 15.6-35 35.1v116.4c0 19.4 15.6 35.1 35 35.1h23.3z"/><path d="m39.4 103.3c-16.2 0-29.4 13.6-29.4 30.2v826.1c0 16.8 13.1 30.3 29.3 30.3h921.3c16.2 0 29.4-13.6 29.4-30.3v-826c0-16.7-13.2-30.2-29.4-30.2h-157.3v87.3c0 29.3-31.4 52.7-70 52.7h-46.6c-38.8 0-70-23.6-70-52.7v-87.3h-233.4v87.3c0 29.3-31.4 52.7-70 52.7h-46.6c-38.8 0-70-23.6-70-52.7v-87.3h-157.3zm763.9 326.7h140v140h-140zm0 186.7h140v140h-140zm0 186.6h140v122.5c0 9.6-9 17.5-20.1 17.5h-119.9zm-186.6-373.3h140v140h-140zm0 186.7h140v140h-140zm0 186.6h140v140h-140zm-186.7-373.3h140v140h-140zm0 373.3h140v140h-140zm-186.7-373.3h140v140h-140zm0 186.7h140v140h-140zm0 186.6h140v140h-140zm-46.6 140h-120c-11.1 0-20.1-7.8-20.1-17.5v-122.5h140v140zm0-186.6h-140v-140h140zm0-186.7h-140v-140h140z"/></g>
</svg>
