<?xml version="1.0" encoding="UTF-8"?>
<svg width="100mm" height="100mm" version="1.1" viewBox="0 0 100 100" xmlns="http://www.w3.org/2000/svg" xmlns:cc="http://creativecommons.org/ns#" xmlns:dc="http://purl.org/dc/elements/1.1/" xmlns:rdf="http://www.w3.org/1999/02/22-rdf-syntax-ns#">
<metadata>
<rdf:RDF>
<cc:Work rdf:about="">
<dc:format>image/svg+xml</dc:format>
<dc:type rdf:resource="http://purl.org/dc/dcmitype/StillImage"/>
<dc:title/>
</cc:Work>
</rdf:RDF>
</metadata>
<g transform="translate(0,-197)">
<flowRoot transform="matrix(.26458 0 0 .26458 0 197)" fill="#000000" font-family="'Bitstream Vera Sans'" font-size="93.333px" font-style="oblique" font-weight="bold" letter-spacing="0px" word-spacing="0px" style="line-height:1.25" xml:space="preserve"><flowRegion font-size="93.333px"><rect x="99.5" y="219.45" width="152.5" height="84"/></flowRegion><flowPara>SS</flowPara></flowRoot>
<flowRoot transform="matrix(.26458 0 0 .26458 0 197)" fill="#000000" font-family="'Bitstream Vera Sans'" font-size="64px" font-style="oblique" font-weight="bold" letter-spacing="0px" word-spacing="0px" style="line-height:1.25" xml:space="preserve"><flowRegion font-size="64px"><rect x="97" y="222.95" width="178.5" height="84.5"/></flowRegion><flowPara/><flowPara>STA</flowPara></flowRoot>
<path d="m82.954 268.24c-0.0652-0.59166-0.12257-1.6618-0.12749-2.3781l-9e-3 -1.3024-3.2433-1.4473-2.0232 1.7942c-1.1127 0.98682-2.0694 1.7942-2.1259 1.7942-0.0565 0-1.4196-1.3448-3.0291-2.9884-2.1487-2.1943-2.8609-3.025-2.6799-3.1261 0.13552-0.0757 0.9878-0.79647 1.894-1.6017l1.6476-1.4641-1.8894-3.6607-5.1467-6e-3v-8.222l4.4244-0.0018 0.32521-1.2862c0.17887-0.70744 0.56487-1.8205 0.85779-2.4734 0.29291-0.6528 0.53257-1.2138 0.53257-1.2465 0-0.0327-0.76981-0.59579-1.7107-1.2512-1.0795-0.75205-1.6781-1.2787-1.6222-1.4274 0.0487-0.1296 1.1932-1.6542 2.5434-3.3881 1.6552-2.1254 2.522-3.1045 2.6606-3.0052 0.11308 0.081 1.0272 0.73853 2.0314 1.4611 1.0042 0.72259 1.8648 1.3138 1.9125 1.3138 0.0477 0 0.7553-0.38115 1.5725-0.847 0.81716-0.46586 1.7647-0.93432 2.1056-1.041l0.6198-0.19403v-5.1587l0.83784 0.10889c0.46082 0.0599 2.4111 0.10889 4.3341 0.10889h3.4962v3.5555l1.3885 0.19588c0.76366 0.10776 1.4071 0.21354 1.4299 0.23514 0.0398 0.0377-0.49119 2.285-0.84351 3.5701l-0.16979 0.61931-1.1282-0.26629c-0.72213-0.17044-1.9083-0.26298-3.2953-0.25711-2.6639 0.0113-4.2677 0.38373-6.6408 1.5421-1.3335 0.6509-1.9943 1.1224-3.3097 2.3612-1.8571 1.749-2.8771 3.2516-3.5955 5.2962-1.7065 4.8569-0.42775 10.112 3.3429 13.738 1.9717 1.8959 4.0599 3.0431 6.8639 3.7707 1.4652 0.38019 5.0708 0.4318 6.464 0.0925 0.5268-0.12827 0.99287-0.19999 1.0357-0.15934 0.0918 0.0871 0.80554 3.3246 0.80554 3.654 0 0.1458-0.35992 0.26842-1.0162 0.34619l-1.0162 0.12043 0.0858 1.6904 0.0858 1.6905h-2.925c-1.6087 0-3.534 0.0488-4.2783 0.10855l-1.3534 0.10855z" fill="#999" stroke-width=".17588"/>
<ellipse cx="38.087" cy="238.75" rx="1.8229" ry="1.7693" fill="#999" stroke-width=".26458"/>
<ellipse cx="46.343" cy="238.22" rx="2.1445" ry="1.9837" fill="#999" stroke-width=".26458"/>
<ellipse cx="46.826" cy="244.7" rx="2.0909" ry="1.9301" fill="#999" stroke-width=".26458"/>
<ellipse cx="38.677" cy="245.45" rx="2.0909" ry="2.0373" fill="#999" stroke-width=".26458"/>
<path d="m43.757 242 2.5674 1.7544-0.66546 0.97385-2.5674-1.7544zm-4.8746-3.5528 2.5674 1.7544-0.66546 0.97385-2.5674-1.7544zm-0.28147 5.8523 2.2206-2.1769 0.82571 0.84229-2.2206 2.1768zm4.2584-4.0915 2.4212-1.9512 0.74013 0.9184-2.4212 1.9512zm1.6438 1.3048a2.3812 2.3151 0 0 1-2.3812 2.3151 2.3812 2.3151 0 0 1-2.3813-2.3151 2.3812 2.3151 0 0 1 2.3812-2.3151 2.3812 2.3151 0 0 1 2.3813 2.3151z" fill="#999" stroke-width=".26458"/>
<path d="m60.096 244.64h1.7306v3.8821h-1.7306zm-3.4611 0h1.7306v3.8821h-1.7306zm-3.695-0.1403h1.7306v3.8821h-1.7306zm7.1094-7.3432h1.7306v3.8821h-1.7306zm-3.4611 0.0468h1.7306v3.8821h-1.7306zm-3.6716 0.11692h1.7306v3.8821h-1.7306zm-0.60804 2.9934h10.337v5.2852h-10.337z" fill="#999"/>
<path d="m23.855 223.36c-4.9378 0.13748-9.4734 4.2003-9.8299 9.1831-0.72301 5.451 3.6514 10.975 9.1708 11.38 5.5809 0.58076 11.166-4.1135 11.152-9.8048 0.31792-4.4819-2.705-8.8125-6.9578-10.196-1.1325-0.39444-2.3353-0.59671-3.5355-0.56215zm0.40582 1.4293c1.9604 0.6323 2.6467 2.9444 3.0866 4.7503-0.6142 0.55636-2.5319 0.0627-3.6292 0.22993-0.79367-0.27052-3.0512 0.61267-2.6679-0.58752 0.5047-1.6684 1.1661-3.8078 3.0098-4.3927l0.0987-5e-3zm3.0551 0.51224c2.0263 0.83102 3.9199 2.4979 4.7953 4.4126-1.098 0.10268-2.2357 0.11809-3.316-0.12477-0.30571-1.4988-0.96348-2.9216-1.586-4.3234zm-6.2495 0.12308c-0.66169 1.3574-1.2142 2.7688-1.5619 4.2417-1.1089 0.0155-2.2231 0.1331-3.33 0.0191 1.0191-1.9884 2.8469-3.5802 4.9452-4.4147zm6.677 7.0292c0.10691 1.2214 0.05567 2.4911-0.19402 3.7062-2.2065-0.0519-4.5196 0.18892-6.671-0.0846-0.61738-1.5495-0.35874-3.302-0.11353-4.9054 2.2824-0.0375 4.5648-0.0748 6.8473-0.11206 0.04378 0.46529 0.08755 0.93058 0.13132 1.3959zm-8.5074 1.1543c-0.03463 1.3449 0.41453 3.1651-1.5585 2.6051-0.72354-0.0965-2.2754 0.46487-2.2281-0.74652-0.16778-1.4724-0.27071-2.9734 0.21392-4.402 1.1129 0.16128 2.8673-0.3082 3.6103 0.21612-0.01253 0.77576-0.02506 1.5515-0.0376 2.3273zm12.303-2.507c0.51678 0.0497 1.4551-0.1699 1.3407 0.66325 0.15148 1.4692 0.26842 3.0507-0.22621 4.5023-1.1742-0.0146-2.3545 0.0389-3.5177-0.0617-0.01528-1.6795-0.01459-3.3591-0.0216-5.0386 0.80821-0.0212 1.6161-0.0682 2.4248-0.0652zm-7.3624 6.4607c0.91338 0.25131 3.1095-0.531 3.1246 0.44414-0.47264 1.7386-1.177 4.0307-3.1347 4.5446-1.8114-0.24646-2.3331-2.3772-2.9357-3.8064-0.07215-0.40586-0.68487-1.2838 0.16439-1.1104 0.92538-0.0665 1.8541-0.0675 2.7814-0.0719zm-7.1069 0.0334c0.97392 0.18654 2.6924-0.506 2.6683 0.93777 0.30924 1.2285 0.94912 2.3365 1.3543 3.5286-2.043-0.81651-4.0362-2.525-4.8283-4.4401 0.26801-0.0218 0.537-0.0244 0.80571-0.0262zm14.179 3e-3c0.74972-0.12697 1.0885 0.1102 0.50706 0.69877-1.072 1.6947-2.6667 3.0374-4.5513 3.7422 0.64977-1.4124 1.2628-2.8501 1.608-4.3741 0.81203-0.0211 1.6237-0.0688 2.4362-0.0668z" fill="#999"/>
<path d="m79.182 242.86c-0.69029-0.0263-1.4907 0.55532-1.3101 1.3113 0.20593 0.77432 1.1666 1.0482 1.8659 0.82062 0.61713 0.21892 1.095 0.72942 1.6484 1.072 0.40816 0.29416 0.8163 0.58832 1.2245 0.88249-2e-3 1.1867-3e-3 2.3733-4e-3 3.56-0.91254 0.5357-1.7985 1.164-2.7275 1.6425-0.6891-0.0274-1.6013-0.016-1.9631 0.6951-0.2629 0.46227-0.12512 1.0642 0.32104 1.3551 0.73056 0.65615 2.1309 0.42561 2.4838-0.52981 0.12971-0.27078-0.0328-0.63006 0.0879-0.85688 0.93858-0.58947 1.8898-1.1669 2.8207-1.7636-5e-3 -1.5485 4e-3 -3.1004-0.01-4.6467-0.99995-0.75927-2.0952-1.4061-3.0268-2.2484-0.12715-0.26451-0.0655-0.61726-0.32066-0.82954-0.26326-0.31819-0.68326-0.47329-1.0897-0.46405z" fill="#999"/>
<path d="m82.998 237.59c-0.78125-0.0147-1.5518 0.81533-1.2041 1.5903 0.15297 0.38047 0.531 0.59115 0.88212 0.75771 4e-3 0.82476-7e-3 1.6529 6e-3 2.4756 1.1227 0.82595 2.2454 1.6519 3.3681 2.4779v6.6341c-1.0239 0.87463-2.0585 1.7412-3.0758 2.6208 0.0121 0.77106 0.0242 1.5421 0.0362 2.3132-0.55739 0.23836-0.88901 1.0003-0.47116 1.5046 0.6371 0.8891 2.2774 0.77669 2.6907-0.26678 0.21676-0.64378-0.38252-1.2383-0.97224-1.3807-0.41138-0.11193-0.11542-0.71907-0.21396-1.05-0.0441-0.431-0.0572-0.84782 0.39408-1.0527 0.87563-0.74011 1.7615-1.4724 2.6308-2.2174-6e-3 -2.548 3e-3 -5.0995-0.0115-7.6454-1.1221-0.82477-2.263-1.6242-3.3619-2.4794v-1.9859c0.47326-0.34533 0.92144-0.97769 0.60397-1.5711-0.22354-0.49021-0.78734-0.72699-1.301-0.72463z" fill="#999"/>
<path d="m89.431 240.12c-0.84014-0.0204-1.6251 0.97814-1.1519 1.7539 0.13909 0.31329 0.51031 0.46959 0.68083 0.70796 0.0544 3.8341 0.13925 7.6681 0.13281 11.503-0.54733 0.29618-1.0838 0.95782-0.76093 1.6006 0.4042 1.0646 2.1461 1.1132 2.5852 0.0548 0.35114-0.62555-0.13289-1.3252-0.67955-1.633-0.1639-0.93139-0.0774-1.9024-0.12737-2.8484-0.0237-2.8722-0.12879-5.7456-0.0749-8.6173-4e-3 -0.29817 0.39602-0.35004 0.51767-0.59854 0.37862-0.39304 0.35701-1.0223 4e-3 -1.4246-0.25419-0.34244-0.71168-0.50371-1.1262-0.49816z" fill="#999"/>
<flowRoot transform="matrix(.26458 0 0 .26458 0 197)" fill="#000000" font-family="'Casanova Scotia'" font-size="40px" letter-spacing="0px" stroke-width="3.7795" word-spacing="0px" style="line-height:1.25" xml:space="preserve"><flowRegion><rect x="48.083" y="286.74" width="242.54" height="84.853" stroke-width="3.7795"/></flowRegion><flowPara font-size="96px" stroke="#000000">STA</flowPara></flowRoot>
<flowRoot fill="black" font-family="'Casanova Scotia'" font-size="85.333px" letter-spacing="0px" word-spacing="0px" style="line-height:1.25" xml:space="preserve"><flowRegion font-size="85.333px"><rect x="127.99" y="1.0649" width="243.24" height="123.74"/></flowRegion><flowPara/></flowRoot>
<path d="m32.543 252.39c-1.5324-2.4e-4 -3.0677 0.0136-3.4241 0.0424-0.67916 0.0548-0.99268 0.13636-1.5203 0.39584-1.2666 0.62287-2.0092 1.8777-2.3409 3.9553-0.10234 0.64088-0.14851 3.1637-0.07235 3.96 0.27243 2.848 1.2787 4.4191 3.1616 4.9366 0.36613 0.10065 0.45142 0.10326 3.961 0.12816l3.5869 0.0253 0.13849 0.13281c0.21408 0.20517 0.2512 0.42447 0.23358 1.3679-0.01747 0.93572-0.05398 1.0714-0.33176 1.2232-0.14049 0.0767-0.38326 0.0827-3.4251 0.0827-0.52884 0-0.67282-3e-3 -0.98237-4e-3v-5e-3h-8.8015v5.2395h5.9717c0.06431 0.0112 1.8324 0.0169 3.929 0.0129l3.8122-7e-3 0.35037-0.10697c0.76525-0.23259 1.4337-0.68279 1.8655-1.2568 0.63352-0.84199 1.0028-1.915 1.1793-3.4282 0.07556-0.64829 0.0763-3.0056 1e-3 -3.6954-0.3118-2.8606-1.4634-4.4534-3.4628-4.7899-0.3738-0.063-0.94718-0.0744-3.7657-0.0744-3.7473-9e-5 -3.561 0.0177-3.745-0.35037-0.08374-0.1674-0.09353-0.28077-0.09353-1.0759 0-0.77663 0.01133-0.911 0.08836-1.0661 0.17621-0.35464-0.01668-0.33693 3.6788-0.33693 3.0703 0 3.3082 6e-3 3.4251 0.0822 0.21858 0.14322 0.28504 0.33635 0.30592 0.88832l0.01912 0.50281h3.638l-5.16e-4 -0.15244c-2.41e-4 -0.0836-0.0214-0.54249-0.04651-1.0201-0.07749-1.4733-0.28853-2.4494-0.72295-3.3414-0.43338-0.88987-0.95485-1.4557-1.6774-1.82-0.46498-0.23449-0.89881-0.34852-1.5286-0.40153-0.3429-0.0288-1.8721-0.0432-3.4044-0.0434z" fill="#999"/>
<path d="m46.471 265.79v-8.115h-5.5659v-5.2852h14.78v5.2852h-5.6127v16.23h-3.6015z" fill="#999"/>
<path d="m53.214 273.82c0.22213-0.6076 9.2252-23.257 9.2447-23.257 0.0268-2.7e-4 9.2575 23.236 9.2573 23.304-4e-5 0.0193-0.93351 0.0351-2.0744 0.0351h-2.0743l-0.58003-1.4729-0.58002-1.4729-7.9001 0.0226-1.1682 2.9233h-2.0775c-1.9587 0-2.0757-5e-3 -2.0475-0.0819zm11.065-8.1617c-1e-5 -0.0618-1.7603-4.5237-1.8006-4.564-0.0129-0.0129-0.0315-0.0148-0.0411-4e-3 -0.0327 0.0363-1.8065 4.5335-1.8065 4.5802 0 0.0298 0.65014 0.0463 1.8241 0.0463 1.4281 0 1.8241-0.0127 1.8241-0.0585z" fill="#999"/>
<path transform="matrix(.26458 0 0 .26458 0 197)" d="m89.457 79.195c-15.607 0.30954-33.217 6.6903-45.309 16.748-6.8578 5.7041-11.127 12.053-14.111 20.979-2.1865 6.5393-2.9363 11.615-2.9238 19.805 0.002804 1.8509 0.028311 3.3833 0.050781 4.9492 0 0-3.4017 17.035-9.0957 22.49-0.5576 1.292-1.2111 2.5462-1.5898 3.8965-0.23366 0.70605-0.29728 1.4392-0.26367 2.1738-0.050109 0.97319 0.51203 1.86 1.3301 2.4648 1.2494 0.8691 2.8542 1.144 4.373 1.3496l7.0762 0.33594s0.27322 1.6996-0.79883 2.0762v0.00195h-0.007812c-0.11822 0.03402-0.23633 0.07713-0.35156 0.10547-1.4078 0.34394-3.5176 2.07-3.5176 2.877 0 0.48223 2.1699 1.2305 4.4805 1.5469 0.02948 0.00378 0.041853 0.00794 0.070313 0.01172 0 0 0.63411 0.22295 0.072265 0.73047-0.51733 0.11263-1.0833 0.22399-1.5762 0.29883-1.9504 0.29518-3.0261 1.1837-3.2969 2.7188-0.3075 1.7432 0.64461 2.5501 3.6465 3.0859 2.1303 0.38026 2.3748 0.51599 2.5762 1.4297 0.010204 0.04649 0.011594 0.09767 0.019531 0.14453l-0.75391 2.8203-0.38086 1.3535c-0.51234 2.099-0.98586 4.2029-1.2266 6.3281-0.21781 2.0934-0.31446 4.2411 0.4668 6.2754l0.14258 0.41406 0.037109 0.10547 0.13867 0.4082c0.42342 0.65794 0.95686 1.2819 1.6875 1.7754 1.5145 1.1042 3.6421 1.565 5.6875 1.7949 0.22114 0.02268 0.44429 0.03384 0.66602 0.05274l5.502-0.44922c1.2518-0.08391 2.5092-0.15842 3.752-0.30469l0.37891-0.07422 0.42969-0.08594c1.0406-0.14211 2.0857-0.24932 3.127-0.38867 1.1602-0.12774 2.3069-0.35303 3.4766-0.41797 0.12329-8.3e-4 0.24788 0.00207 0.37109 0.00782 1.1952-0.02268 2.3447 0.42783 3.1934 1.0996 1.5688 1.2245 2.4081 2.9222 3.0332 4.5879 1.0132 2.8454 1.4226 5.8103 1.6582 8.7598l0.17773 1.3418v7.7734 5.5312 26.83 25.59h16.625v-25.59-31-4.25-15.207c0-15.258-0.094831-19.485-0.44141-19.59-4.3837-1.3239-7.1011-2.3337-10.135-3.7695-15.456-7.3154-26.431-21.616-29.967-39.045-0.50435-2.486-0.64024-4.7697-0.62891-10.594 0.015685-8.1663 0.43661-10.976 2.6387-17.592 6.2883-18.892 22.768-32.999 42.234-36.156 3.7562-0.60937 12.065-0.68156 15.969-0.13867 14.168 1.9706 26.545 9.605 36.219 22.342 1.4439 1.9012 3.6212 4.7662 4.8398 6.3652 1.2186 1.599 3.1932 4.8154 4.3887 7.1484 1.5749 3.0733 2.6792 4.7341 4.0078 6.0312 3.1 3.0266 9.3273 5.8093 14.15 6.3223 1.1598 0.12322 2.7849 0.30766 3.6113 0.41016l1.3809 0.16992v0.07617h83.195v-10.357h-83.195v0.0918l-2.8516-0.17774c-3.4033-0.21241-6.332-1.3423-8.2988-3.2031-0.65686-0.62147-2.8256-3.5973-4.8203-6.6113-15.452-23.345-32.119-34.531-54.797-36.777-2.1258-0.21052-4.3135-0.2903-6.543-0.24609z" fill="#999"/>
</g>
</svg>
