<?xml version="1.0" encoding="UTF-8"?>
<svg width="30mm" height="30mm" version="1.1" viewBox="0 0 90 90" xmlns="http://www.w3.org/2000/svg" xmlns:cc="http://creativecommons.org/ns#" xmlns:dc="http://purl.org/dc/elements/1.1/" xmlns:rdf="http://www.w3.org/1999/02/22-rdf-syntax-ns#">
<metadata>
<rdf:RDF>
<cc:Work rdf:about="">
<dc:format>image/svg+xml</dc:format>
<dc:type rdf:resource="http://purl.org/dc/dcmitype/StillImage"/>
<dc:title/>
</cc:Work>
</rdf:RDF>
</metadata>
<g transform="translate(0,-224.3)">
<flowRoot transform="matrix(.26458 0 0 .26458 0 197)" fill="#000000" font-family="'Bitstream Vera Sans'" font-size="93.333px" font-style="oblique" font-weight="bold" letter-spacing="0px" word-spacing="0px" style="line-height:1.25" xml:space="preserve"><flowRegion font-size="93.333px"><rect x="99.5" y="219.45" width="152.5" height="84"/></flowRegion><flowPara>SS</flowPara></flowRoot>
<flowRoot transform="matrix(.26458 0 0 .26458 0 197)" fill="#000000" font-family="'Bitstream Vera Sans'" font-size="64px" font-style="oblique" font-weight="bold" letter-spacing="0px" word-spacing="0px" style="line-height:1.25" xml:space="preserve"><flowRegion font-size="64px"><rect x="97" y="222.95" width="178.5" height="84.5"/></flowRegion><flowPara/><flowPara>STA</flowPara></flowRoot>
<path d="m78.812 292.03c-0.0652-0.59166-0.12257-1.6618-0.12749-2.3781l-9e-3 -1.3024-3.2433-1.4473-2.0232 1.7942c-1.1127 0.98682-2.0694 1.7942-2.1259 1.7942-0.0565 0-1.4196-1.3448-3.0291-2.9884-2.1487-2.1943-2.8609-3.025-2.6799-3.1261 0.13552-0.0757 0.9878-0.79647 1.894-1.6017l1.6476-1.4641-1.8894-3.6607-5.1467-6e-3v-8.222l4.4244-0.0018 0.32521-1.2862c0.17887-0.70744 0.56487-1.8205 0.85779-2.4734 0.29291-0.6528 0.53257-1.2138 0.53257-1.2465 0-0.0327-0.76981-0.59579-1.7107-1.2512-1.0795-0.75205-1.6781-1.2787-1.6222-1.4274 0.0487-0.1296 1.1932-1.6542 2.5434-3.3881 1.6552-2.1254 2.522-3.1045 2.6606-3.0052 0.11308 0.081 1.0272 0.73853 2.0314 1.4611 1.0042 0.72259 1.8648 1.3138 1.9125 1.3138 0.0477 0 0.7553-0.38115 1.5725-0.847 0.81716-0.46586 1.7647-0.93432 2.1056-1.041l0.6198-0.19403v-5.1587l0.83784 0.10889c0.46082 0.0599 2.4111 0.10889 4.3341 0.10889h3.4962v3.5555l1.3885 0.19588c0.76366 0.10776 1.4071 0.21354 1.4299 0.23514 0.0398 0.0377-0.49119 2.285-0.84351 3.5701l-0.16979 0.61931-1.1282-0.26629c-0.72213-0.17044-1.9083-0.26298-3.2953-0.25711-2.6639 0.0113-4.2677 0.38373-6.6408 1.5421-1.3335 0.6509-1.9943 1.1224-3.3097 2.3612-1.8571 1.749-2.8771 3.2516-3.5955 5.2962-1.7065 4.8569-0.42775 10.112 3.3429 13.738 1.9717 1.8959 4.0599 3.0431 6.8639 3.7707 1.4652 0.38019 5.0708 0.4318 6.464 0.0925 0.5268-0.12827 0.99287-0.19999 1.0357-0.15934 0.0918 0.0871 0.80554 3.3246 0.80554 3.654 0 0.1458-0.35992 0.26842-1.0162 0.34619l-1.0162 0.12043 0.0858 1.6904 0.0858 1.6905h-2.925c-1.6087 0-3.534 0.0488-4.2783 0.10855l-1.3534 0.10855z" fill="#000096" stroke-width=".17588"/>
<ellipse cx="33.944" cy="262.54" rx="1.8229" ry="1.7693" fill="#00f000" stroke-width=".26458"/>
<ellipse cx="42.201" cy="262.01" rx="2.1445" ry="1.9837" fill="#ffdc00" stroke-width=".26458"/>
<ellipse cx="42.683" cy="268.49" rx="2.0909" ry="1.9301" fill="#f00" stroke-width=".26458"/>
<ellipse cx="34.534" cy="269.24" rx="2.0909" ry="2.0373" fill="#00f" stroke-width=".26458"/>
<path d="m39.614 265.79 2.5674 1.7544-0.66546 0.97385-2.5674-1.7544zm-4.8746-3.5528 2.5674 1.7544-0.66546 0.97385-2.5674-1.7544zm-0.28147 5.8523 2.2206-2.1769 0.82571 0.84229-2.2206 2.1768zm4.2584-4.0915 2.4212-1.9512 0.74013 0.9184-2.4212 1.9512zm1.6438 1.3048a2.3812 2.3151 0 0 1-2.3812 2.3151 2.3812 2.3151 0 0 1-2.3813-2.3151 2.3812 2.3151 0 0 1 2.3812-2.3151 2.3812 2.3151 0 0 1 2.3813 2.3151z" stroke-width=".26458"/>
<path d="m55.953 268.43h1.7306v3.8821h-1.7306zm-3.4611 0h1.7306v3.8821h-1.7306zm-3.695-0.1403h1.7306v3.8821h-1.7306zm7.1094-7.3432h1.7306v3.8821h-1.7306zm-3.4611 0.0468h1.7306v3.8821h-1.7306zm-3.6716 0.11692h1.7306v3.8821h-1.7306zm-0.60804 2.9934h10.337v5.2852h-10.337z"/>
<path d="m19.712 247.15c-4.9378 0.13748-9.4734 4.2003-9.8299 9.1831-0.72301 5.451 3.6514 10.975 9.1708 11.38 5.5809 0.58076 11.166-4.1135 11.152-9.8048 0.31792-4.4819-2.705-8.8125-6.9578-10.196-1.1325-0.39444-2.3353-0.59671-3.5355-0.56215zm0.40582 1.4293c1.9604 0.6323 2.6467 2.9444 3.0866 4.7503-0.6142 0.55636-2.5319 0.0627-3.6292 0.22993-0.79367-0.27052-3.0512 0.61267-2.6679-0.58752 0.5047-1.6684 1.1661-3.8078 3.0098-4.3927l0.0987-5e-3zm3.0551 0.51224c2.0263 0.83102 3.9199 2.4979 4.7953 4.4126-1.098 0.10268-2.2357 0.11809-3.316-0.12477-0.30571-1.4988-0.96348-2.9216-1.586-4.3234zm-6.2495 0.12308c-0.66169 1.3574-1.2142 2.7688-1.5619 4.2417-1.1089 0.0155-2.2231 0.1331-3.33 0.0191 1.0191-1.9884 2.8469-3.5802 4.9452-4.4147zm6.677 7.0292c0.10691 1.2214 0.05567 2.4911-0.19402 3.7062-2.2065-0.0519-4.5196 0.18892-6.671-0.0846-0.61738-1.5495-0.35874-3.302-0.11353-4.9054 2.2824-0.0375 4.5648-0.0748 6.8473-0.11206 0.04378 0.46529 0.08755 0.93058 0.13132 1.3959zm-8.5074 1.1543c-0.03463 1.3449 0.41453 3.1651-1.5585 2.6051-0.72354-0.0965-2.2754 0.46487-2.2281-0.74652-0.16778-1.4724-0.27071-2.9734 0.21392-4.402 1.1129 0.16128 2.8673-0.3082 3.6103 0.21612-0.01253 0.77576-0.02506 1.5515-0.0376 2.3273zm12.303-2.507c0.51678 0.0497 1.4551-0.1699 1.3407 0.66325 0.15148 1.4692 0.26842 3.0507-0.22621 4.5023-1.1742-0.0146-2.3545 0.0389-3.5177-0.0617-0.01528-1.6795-0.01459-3.3591-0.0216-5.0386 0.80821-0.0212 1.6161-0.0682 2.4248-0.0652zm-7.3624 6.4607c0.91338 0.25131 3.1095-0.531 3.1246 0.44414-0.47264 1.7386-1.177 4.0307-3.1347 4.5446-1.8114-0.24646-2.3331-2.3772-2.9357-3.8064-0.07215-0.40586-0.68487-1.2838 0.16439-1.1104 0.92538-0.0665 1.8541-0.0675 2.7814-0.0719zm-7.1069 0.0334c0.97392 0.18654 2.6924-0.506 2.6683 0.93777 0.30924 1.2285 0.94912 2.3365 1.3543 3.5286-2.043-0.81651-4.0362-2.525-4.8283-4.4401 0.26801-0.0218 0.537-0.0244 0.80571-0.0262zm14.179 3e-3c0.74972-0.12697 1.0885 0.1102 0.50706 0.69877-1.072 1.6947-2.6667 3.0374-4.5513 3.7422 0.64977-1.4124 1.2628-2.8501 1.608-4.3741 0.81203-0.0211 1.6237-0.0688 2.4362-0.0668z"/>
<path d="m75.039 266.65c-0.69029-0.0263-1.4907 0.55532-1.3101 1.3113 0.20593 0.77432 1.1666 1.0482 1.8659 0.82062 0.61713 0.21892 1.095 0.72942 1.6484 1.072 0.40816 0.29416 0.8163 0.58832 1.2245 0.88249-2e-3 1.1867-3e-3 2.3733-4e-3 3.56-0.91254 0.5357-1.7985 1.164-2.7275 1.6425-0.6891-0.0274-1.6013-0.016-1.9631 0.6951-0.2629 0.46227-0.12512 1.0642 0.32104 1.3551 0.73056 0.65615 2.1309 0.42561 2.4838-0.52981 0.12971-0.27078-0.0328-0.63006 0.0879-0.85688 0.93858-0.58947 1.8898-1.1669 2.8207-1.7636-5e-3 -1.5485 4e-3 -3.1004-0.01-4.6467-0.99995-0.75927-2.0952-1.4061-3.0268-2.2484-0.12715-0.26451-0.0655-0.61726-0.32066-0.82954-0.26326-0.31819-0.68326-0.47329-1.0897-0.46405z" fill="#000096"/>
<path d="m78.855 261.38c-0.78125-0.0147-1.5518 0.81533-1.2041 1.5903 0.15297 0.38047 0.531 0.59115 0.88212 0.75771 4e-3 0.82476-7e-3 1.6529 6e-3 2.4756 1.1227 0.82595 2.2454 1.6519 3.3681 2.4779v6.6341c-1.0239 0.87463-2.0585 1.7412-3.0758 2.6208 0.0121 0.77106 0.0242 1.5421 0.0362 2.3132-0.55739 0.23836-0.88901 1.0003-0.47116 1.5046 0.6371 0.8891 2.2774 0.77669 2.6907-0.26678 0.21676-0.64378-0.38252-1.2383-0.97224-1.3807-0.41138-0.11193-0.11542-0.71907-0.21396-1.05-0.0441-0.431-0.0572-0.84782 0.39408-1.0527 0.87563-0.74011 1.7615-1.4724 2.6308-2.2174-6e-3 -2.548 3e-3 -5.0995-0.0115-7.6454-1.1221-0.82477-2.263-1.6242-3.3619-2.4794v-1.9859c0.47326-0.34533 0.92144-0.97769 0.60397-1.5711-0.22354-0.49021-0.78734-0.72699-1.301-0.72463z" fill="#000096"/>
<path d="m85.288 263.91c-0.84014-0.0204-1.6251 0.97814-1.1519 1.7539 0.13909 0.31329 0.51031 0.46959 0.68083 0.70796 0.0544 3.8341 0.13925 7.6681 0.13281 11.503-0.54733 0.29618-1.0838 0.95782-0.76093 1.6006 0.4042 1.0646 2.1461 1.1132 2.5852 0.0548 0.35114-0.62555-0.13289-1.3252-0.67955-1.633-0.1639-0.93139-0.0774-1.9024-0.12737-2.8484-0.0237-2.8722-0.12879-5.7456-0.0749-8.6173-4e-3 -0.29817 0.39602-0.35004 0.51767-0.59854 0.37862-0.39304 0.35701-1.0223 4e-3 -1.4246-0.25419-0.34244-0.71168-0.50371-1.1262-0.49816z" fill="#000096"/>
<flowRoot transform="matrix(.26458 0 0 .26458 0 197)" fill="#000000" font-family="'Casanova Scotia'" font-size="40px" letter-spacing="0px" stroke-width="3.7795" word-spacing="0px" style="line-height:1.25" xml:space="preserve"><flowRegion><rect x="48.083" y="286.74" width="242.54" height="84.853" stroke-width="3.7795"/></flowRegion><flowPara font-size="96px" stroke="#000000">STA</flowPara></flowRoot>
<flowRoot fill="#000000" font-family="'Casanova Scotia'" font-size="85.333px" letter-spacing="0px" word-spacing="0px" style="line-height:1.25" xml:space="preserve"><flowRegion font-size="85.333px"><rect x="127.99" y="1.0649" width="243.24" height="123.74"/></flowRegion><flowPara/></flowRoot>
<path d="m28.4 276.18c-1.5324-2.4e-4 -3.0677 0.0136-3.4241 0.0424-0.67916 0.0548-0.99268 0.13636-1.5203 0.39584-1.2666 0.62287-2.0092 1.8777-2.3409 3.9553-0.10234 0.64088-0.14851 3.1637-0.07235 3.96 0.27243 2.848 1.2787 4.4191 3.1616 4.9366 0.36613 0.10065 0.45142 0.10326 3.961 0.12816l3.5869 0.0253 0.13849 0.13281c0.21408 0.20517 0.2512 0.42447 0.23358 1.3679-0.01747 0.93572-0.05398 1.0714-0.33176 1.2232-0.14049 0.0767-0.38326 0.0827-3.4251 0.0827-0.52884 0-0.67282-3e-3 -0.98237-4e-3v-5e-3h-8.8015v5.2395h5.9717c0.06431 0.0112 1.8324 0.0169 3.929 0.0129l3.8122-7e-3 0.35037-0.10697c0.76525-0.23259 1.4337-0.68279 1.8655-1.2568 0.63352-0.84199 1.0028-1.915 1.1793-3.4282 0.07556-0.64829 0.0763-3.0056 1e-3 -3.6954-0.3118-2.8606-1.4634-4.4534-3.4628-4.7899-0.3738-0.063-0.94718-0.0744-3.7657-0.0744-3.7473-9e-5 -3.561 0.0177-3.745-0.35037-0.08374-0.1674-0.09353-0.28077-0.09353-1.0759 0-0.77663 0.01133-0.911 0.08836-1.0661 0.17621-0.35464-0.01668-0.33693 3.6788-0.33693 3.0703 0 3.3082 6e-3 3.4251 0.0822 0.21858 0.14322 0.28504 0.33635 0.30592 0.88832l0.01912 0.50281h3.638l-5.16e-4 -0.15244c-2.41e-4 -0.0836-0.0214-0.54249-0.04651-1.0201-0.07749-1.4733-0.28853-2.4494-0.72295-3.3414-0.43338-0.88987-0.95485-1.4557-1.6774-1.82-0.46498-0.23449-0.89881-0.34852-1.5286-0.40153-0.3429-0.0288-1.8721-0.0432-3.4044-0.0434z"/>
<path d="m42.328 289.58v-8.115h-5.5659v-5.2852h14.78v5.2852h-5.6127v16.23h-3.6015z"/>
<path d="m49.072 297.61c0.22213-0.6076 9.2252-23.257 9.2447-23.257 0.0268-2.7e-4 9.2575 23.236 9.2573 23.304-4e-5 0.0193-0.93351 0.0351-2.0744 0.0351h-2.0743l-0.58003-1.4729-0.58002-1.4729-7.9001 0.0226-1.1682 2.9233h-2.0775c-1.9587 0-2.0757-5e-3 -2.0475-0.0819zm11.065-8.1617c-1e-5 -0.0618-1.7603-4.5237-1.8006-4.564-0.0129-0.0129-0.0315-0.0148-0.0411-4e-3 -0.0327 0.0363-1.8065 4.5335-1.8065 4.5802 0 0.0298 0.65014 0.0463 1.8241 0.0463 1.4281 0 1.8241-0.0127 1.8241-0.0585z"/>
<path d="m19.526 241.74c-4.1292 0.0819-8.7886 1.7702-11.988 4.4312-1.8145 1.5092-2.944 3.189-3.7336 5.5506-0.5785 1.7302-0.7769 3.0731-0.7736 5.24 7.408e-4 0.48971 0.00749 0.89517 0.013435 1.3095 0 0-0.90004 4.5071-2.4066 5.9505-0.14753 0.34185-0.32044 0.67368-0.42065 1.031-0.061821 0.18681-0.078655 0.3808-0.069763 0.57516-0.013258 0.25749 0.13547 0.49213 0.35192 0.65215 0.33058 0.22995 0.75517 0.30269 1.157 0.35709l1.8722 0.0889s0.07229 0.44968-0.21136 0.54932v5.3e-4h-0.00206c-0.03128 9e-3 -0.062528 0.0204-0.093017 0.0279-0.37248 0.091-0.93069 0.54768-0.93069 0.7612 0 0.12759 0.57411 0.32557 1.1855 0.40928 0.0078 1e-3 0.011073 2e-3 0.018603 3e-3 0 0 0.16778 0.059 0.019121 0.19327-0.13688 0.0298-0.28662 0.0593-0.41703 0.0791-0.51605 0.0781-0.80066 0.31319-0.8723 0.71933-0.08136 0.46122 0.17055 0.67472 0.9648 0.81649 0.56365 0.10061 0.62832 0.13652 0.68161 0.37827 0.0027 0.0123 0.00307 0.0258 0.00517 0.0382l-0.19947 0.74621-0.10077 0.35812c-0.13556 0.55536-0.26084 1.112-0.32453 1.6743-0.05763 0.55388-0.0832 1.1221 0.12351 1.6604l0.037724 0.10955 0.00982 0.0279 0.03669 0.108c0.11203 0.17408 0.25317 0.33916 0.44648 0.46974 0.40071 0.29215 0.96364 0.41407 1.5048 0.4749 0.05851 6e-3 0.11755 9e-3 0.17622 0.0139l1.4557-0.11886c0.3312-0.0222 0.6639-0.0419 0.9927-0.0806l0.10025-0.0196 0.11369-0.0227c0.27533-0.0376 0.55185-0.066 0.82734-0.10284 0.30697-0.0338 0.61037-0.0934 0.91984-0.11059 0.03262-2.2e-4 0.06558 5.3e-4 0.09818 2e-3 0.31622-6e-3 0.62037 0.1132 0.84491 0.29094 0.41507 0.32399 0.63714 0.77317 0.80254 1.2139 0.26808 0.75284 0.37639 1.5373 0.43873 2.3177l0.04703 0.35502v17.39h4.3987v-20.121c0-4.0371-0.02509-5.1554-0.11679-5.1831-1.1599-0.35029-1.8788-0.61746-2.6815-0.99736-4.0895-1.9356-6.9931-5.7192-7.9287-10.331-0.13344-0.65775-0.1694-1.262-0.1664-2.8029 0.00415-2.1607 0.11552-2.9042 0.69815-4.6545 1.6638-4.9984 6.0241-8.731 11.175-9.5663 0.99383-0.16123 3.1922-0.18033 4.2251-0.0367 3.7486 0.52138 7.0234 2.5413 9.5829 5.9113 0.38204 0.50302 0.95811 1.2611 1.2805 1.6841 0.32242 0.42307 0.84487 1.2741 1.1612 1.8914 0.41668 0.81315 0.70887 1.2526 1.0604 1.5958 0.82022 0.80078 2.4678 1.537 3.744 1.6728 0.30686 0.0326 0.73684 0.0814 0.9555 0.10852l0.36535 0.045v0.0202h22.012v-2.7404h-22.012v0.0243l-0.75448-0.047c-0.90045-0.0562-1.6753-0.35515-2.1957-0.84749-0.17379-0.16443-0.74762-0.95178-1.2754-1.7492-4.0882-6.1768-8.4983-9.1364-14.498-9.7307-0.56246-0.0557-1.1413-0.0768-1.7312-0.0651z"/>
</g>
</svg>
