<?xml version="1.0" encoding="UTF-8"?>
<svg width="30mm" height="30mm" enable-background="new 0 0 1000 1000" version="1.1" viewBox="0 0 1e3 1e3" xml:space="preserve" xmlns="http://www.w3.org/2000/svg" xmlns:cc="http://creativecommons.org/ns#" xmlns:dc="http://purl.org/dc/elements/1.1/" xmlns:rdf="http://www.w3.org/1999/02/22-rdf-syntax-ns#">
<metadata> Svg Vector Icons : http://www.onlinewebfonts.com/icon <rdf:RDF><cc:Work rdf:about=""><dc:format>image/svg+xml</dc:format><dc:type rdf:resource="http://purl.org/dc/dcmitype/StillImage"/><dc:title/></cc:Work></rdf:RDF></metadata>
<g transform="translate(2.3516 11.413)"><g transform="matrix(.1 0 0 -.1 0 511)"><path d="m4750.3 4992.6c-449.8-52.4-670.3-113.5-949.8-255.4-246.7-126.6-537.1-417-659.4-659.4-194.3-382.1-224.9-583-224.9-1432.3v-650.6l-80.8-148.5c-74.2-133.2-83-165.9-89.5-345-10.9-257.6 39.3-397.4 205.2-576.4 100.4-109.2 128.8-161.6 196.5-351.5 131-382.1 286-661.6 528.4-962.9l135.4-168.1v-238c0-224.9-4.4-244.5-61.1-336.2-218.3-340.7-1192.1-853.8-2941-1550.3-585.1-233.6-641.9-268.5-685.6-427.9-32.7-113.5-30.6-1299.1 0-1414.8 13.1-48 45.9-111.3 69.9-137.5 111.4-120.1-209.6-113.6 4814.3-113.6h4648.4l72.1 48c39.3 28.4 93.9 78.6 117.9 111.3 43.7 59 45.8 91.7 52.4 735.8 4.4 443.2-2.2 705.2-17.5 764.2-43.7 165.9-96.1 198.7-687.8 432.3-1740.1 692.1-2722.7 1211.8-2941 1552.4-56.8 91.7-61.1 111.4-61.1 336.2v238l135.4 168.1c74.2 91.7 168.1 218.3 209.6 283.8 104.8 163.8 272.9 521.8 340.6 731.4 45.8 137.6 80.8 196.5 174.7 299.1 165.9 179 216.1 318.8 205.2 576.4-6.6 179-15.3 211.8-87.3 340.6l-78.6 144.1-10.9 751.1c-8.7 676.8-13.1 768.5-54.6 930.1-220.5 849.3-853.7 1290.4-1903.9 1325.3-161.6 4.5-329.7 4.5-371.2 0.2z"/></g></g>
</svg>
