<?xml version="1.0" encoding="UTF-8"?>
<svg width="20mm" height="20mm" version="1.1" viewBox="0 0 306.83 306.83" xml:space="preserve" xmlns="http://www.w3.org/2000/svg" xmlns:cc="http://creativecommons.org/ns#" xmlns:dc="http://purl.org/dc/elements/1.1/" xmlns:rdf="http://www.w3.org/1999/02/22-rdf-syntax-ns#"><metadata><rdf:RDF><cc:Work rdf:about=""><dc:format>image/svg+xml</dc:format><dc:type rdf:resource="http://purl.org/dc/dcmitype/StillImage"/><dc:title/></cc:Work></rdf:RDF></metadata>
<g transform="translate(-2.568 .0003804)">
		<path d="m270 286.83v-54.144h-79.905v54.144h-76.283l-18.328-116.47c5.813-7.582 9.279-17.053 9.279-27.323 0-0.748-0.02-1.491-0.057-2.229l77.404-80.006h18.771c-1.815 4.013-2.835 8.459-2.835 13.142 0 14.152 9.239 26.181 22 30.391v27.473h-8.663l-0.768 31.698-34.104 22.839 22.054 31.177 16.328-11.551-10.204-14.425 25.357-16.981 25.358 16.981-10.205 14.425 16.328 11.551 22.055-31.177-34.104-22.839-0.768-31.698h-8.664v-27.473c12.761-4.21 22-16.239 22-30.391 0-4.683-1.02-9.129-2.835-13.142h25.051v-60.801h-138.6l-110.32 105.26c-12.375 8.027-20.584 21.954-20.584 37.771 0 10.271 3.466 19.742 9.279 27.323l-21.476 136.47h301.7v-20zm-39.954-200.89c-6.617 0-12-5.383-12-12s5.383-12 12-12 12 5.383 12 12-5.382 12-12 12zm-76.374-65.942h110.59v20.801h-90.631l-75.732 78.277c-6.145-9.818-15.926-16.962-27.357-19.752zm-99.217 98.608c0.414-0.089 0.829-0.169 1.246-0.237 0.016-2e-3 0.031-6e-3 0.046-8e-3 0.438-0.071 0.876-0.131 1.316-0.179 6e-3 0 0.011-1e-3 0.017-2e-3 0.424-0.046 0.848-0.079 1.271-0.104 0.026-1e-3 0.051-4e-3 0.076-6e-3 0.445-0.024 0.89-0.036 1.334-0.036 0.694 0 1.379 0.037 2.06 0.092 0.11 9e-3 0.222 0.015 0.332 0.025 0.613 0.058 1.218 0.144 1.818 0.244 0.186 0.032 0.371 0.064 0.556 0.1 0.533 0.103 1.06 0.223 1.582 0.358 0.268 0.07 0.532 0.147 0.796 0.227 0.288 0.085 0.572 0.179 0.855 0.274 0.535 0.181 1.064 0.376 1.582 0.592 0.085 0.036 0.171 0.072 0.256 0.108 5.835 2.507 10.528 7.174 13.074 12.989 0.147 0.34 0.29 0.682 0.422 1.03 0.096 0.249 0.188 0.5 0.276 0.753 0.193 0.561 0.374 1.128 0.529 1.708 0.013 0.047 0.028 0.094 0.041 0.142 0.185 0.711 0.341 1.436 0.465 2.172 3e-3 0.018 7e-3 0.035 0.01 0.053l0.072 0.426c0.181 1.21 0.276 2.448 0.276 3.708 0 7.699-3.5 14.594-8.99 19.183-0.458 0.383-0.93 0.746-1.412 1.093-0.122 0.088-0.244 0.175-0.367 0.261-0.507 0.352-1.025 0.686-1.555 0.998-0.091 0.054-0.183 0.105-0.274 0.158-0.577 0.33-1.163 0.641-1.762 0.923-0.023 0.011-0.046 0.021-0.069 0.031-1.94 0.907-3.993 1.56-6.105 1.945-0.056 0.01-0.112 0.021-0.168 0.03-0.664 0.116-1.333 0.206-2.007 0.268-0.08 7e-3 -0.161 0.012-0.241 0.019-0.68 0.056-1.364 0.091-2.051 0.091s-1.37-0.035-2.051-0.091c-0.08-7e-3 -0.161-0.011-0.241-0.019-0.674-0.063-1.343-0.152-2.007-0.268l-0.168-0.03c-2.112-0.385-4.165-1.038-6.105-1.945-0.023-0.011-0.046-0.02-0.069-0.031-0.6-0.282-1.186-0.594-1.762-0.923-0.091-0.052-0.183-0.104-0.274-0.158-0.53-0.312-1.048-0.646-1.555-0.998-0.123-0.085-0.245-0.173-0.367-0.261-0.482-0.347-0.954-0.71-1.412-1.093-5.49-4.589-8.99-11.484-8.99-19.183 1e-3 -11.965 8.45-21.988 19.694-24.429zm5.307 168.22h-33.804l16.118-102.42c5.432 2.331 11.41 3.626 17.686 3.626s12.253-1.295 17.686-3.626l16.119 102.42zm190.24 0h-39.905v-34.144h39.905z"/>
</g>
</svg>
